<svg xmlns="http://www.w3.org/2000/svg" xmlns:xlink="http://www.w3.org/1999/xlink" width="127.054" height="112.858" viewBox="0 0 127.054 112.858"><defs><radialGradient id="a" cx="0.5" cy="0.5" r="0.617" gradientTransform="matrix(-0.851, -0.526, 0.316, -0.512, 0.767, 1.019)" gradientUnits="objectBoundingBox"><stop offset="0" stop-color="#e9d200"/><stop offset="0.201" stop-color="#e4c700"/><stop offset="1" stop-color="#820000"/></radialGradient></defs><g transform="translate(-14.265 -62.952)"><path d="M19.807,72.765,17,67.829s-.887-1.678.791-2.275,120.009.925,120.009.925,1.773.051.558,2.307-8.637,14-8.637,14-1.21,2.432-2.2,2.85-19.091,0-19.091,0a4.745,4.745,0,0,0-1.4,1.683c-.472,1.027-28.377,49.186-28.377,49.186s-1.212,2.748-3.192,0S49.968,90.944,49.968,90.944s-2.676-4.908-3.862-5.374-18.227,0-18.227,0-1.567.381-1.144,1.737,48.982,85.4,48.982,85.4a1.446,1.446,0,0,0,2.359,0c1.258-1.416,42.37-70.788,42.37-70.788" transform="translate(0 -0.007)" fill="none" stroke="#f7f7ff" stroke-linecap="square" stroke-linejoin="round" stroke-width="5"/><g transform="translate(72 85.159)" fill="none" stroke="#f7f7ff" stroke-width="3"><circle cx="5" cy="5" r="5" stroke="none"/><circle cx="5" cy="5" r="3.5" fill="none"/></g><g transform="translate(18 72.907)" fill="none" stroke="#f7f7ff" stroke-width="3"><circle cx="5" cy="5" r="5" stroke="none"/><circle cx="5" cy="5" r="3.5" fill="none"/></g><g transform="translate(118.266 92.157)" fill="none" stroke="#f7f7ff" stroke-width="3"><circle cx="5" cy="5" r="5" stroke="none"/><circle cx="5" cy="5" r="3.5" fill="none"/></g><line y2="22" transform="translate(77 65.907)" fill="none" stroke="#f7f7ff" stroke-width="5"/><g transform="translate(-3.461 -0.902)"><path d="M2.415,0c0-.009-.007,0-.045.044C2.136.324,0,3.547,0,3.547l1.806-.271L.564,5.917l2.6-3.453L.971,2.983,2.415,0h0" transform="translate(73.782 96.744) rotate(22)" stroke="#3e0000" stroke-linecap="round" stroke-linejoin="round" stroke-width="0.1" fill="url(#a)"/><path d="M4,.005c0-.014-.012,0-.075.073C3.539.536,0,5.878,0,5.878l2.992-.449L.935,9.805l4.3-5.723-3.628.86L4,.005H4" transform="matrix(-0.588, 0.809, -0.809, -0.588, 91.906, 102.867)" stroke="#3e0000" stroke-linecap="round" stroke-linejoin="round" stroke-width="0.15" fill="url(#a)"/></g></g></svg>