<svg xmlns="http://www.w3.org/2000/svg" width="127.054" height="112.054" viewBox="0 0 127.054 112.054"><g transform="translate(-14.265 -63.755)"><path d="M19.807,73.765,17,68.829s-.887-1.678.791-2.275S137.8,66.479,137.8,66.479s1.773.051.558,2.307-8.637,14-8.637,14-1.21,2.432-2.2,2.85-19.091,0-19.091,0a4.745,4.745,0,0,0-1.4,1.683c-.472,1.027-28.377,49.186-28.377,49.186s-1.212,2.748-3.192,0S49.968,90.944,49.968,90.944s-2.676-4.908-3.862-5.374-18.227,0-18.227,0-1.567.381-1.144,1.737,48.982,85.4,48.982,85.4a1.446,1.446,0,0,0,2.359,0c1.258-1.416,42.37-70.788,42.37-70.788" transform="translate(0 -0.007)" fill="none" stroke="#000" stroke-linecap="square" stroke-linejoin="round" stroke-width="5"/><g transform="translate(72 85.159)" fill="none" stroke="#000" stroke-width="3"><circle cx="5" cy="5" r="5" stroke="none"/><circle cx="5" cy="5" r="3.5" fill="none"/></g><g transform="translate(18 73.907)" fill="none" stroke="#000" stroke-width="3"><circle cx="5" cy="5" r="5" stroke="none"/><circle cx="5" cy="5" r="3.5" fill="none"/></g><g transform="translate(118.266 92.157)" fill="none" stroke="#000" stroke-width="3"><circle cx="5" cy="5" r="5" stroke="none"/><circle cx="5" cy="5" r="3.5" fill="none"/></g><line y2="22" transform="translate(77 65.907)" fill="none" stroke="#000" stroke-width="5"/></g></svg>